<?xml version="1.0" standalone="yes"?>
<svg xmlns="http://www.w3.org/2000/svg" width="1016" height="1024">
<path style="fill:#378d81; stroke:none;" d="M0 0L0 1024L1016 1024L1016 0L0 0z"/>
<path style="fill:#b7d6d2; stroke:none;" d="M232 120L232 593L232 708C232 718.822 227.663 740.887 237 748C228.727 734.847 233 712.247 233 697L233 576L233 121L493 121L493 291C497.308 280.734 494 263.158 494 252L494 161L494 132C494 129.02 495.073 123.147 492.397 121.028C488.706 118.105 478.513 120 474 120L424 120L232 120z"/>
<path style="fill:#7daba3; stroke:none;" d="M493 120L494 121L493 120z"/>
<path style="fill:#699790; stroke:none;" d="M508 120L508 125L509 125L508 120z"/>
<path style="fill:#b7d6d2; stroke:none;" d="M509 120L509 121L590 121L565 120L509 120z"/>
<path style="fill:#7daba3; stroke:none;" d="M590 120L590 137L591 137L590 120M685 120L686 121L685 120z"/>
<path style="fill:#b7d6d2; stroke:none;" d="M685 148L686 148L686 121L768 121L748 120L705 120L686.028 121.603L685 148z"/>
<path style="fill:#7daba3; stroke:none;" d="M768 120L768 136L769 136L768 120z"/>
<path style="fill:#feffff; stroke:none;" d="M233 121L233 558L233 687L233 725L233.603 742.999L252 759.661L298 796.2L432.715 903.343L471 933.8L493 950L493 430C464.304 430 435.667 431 407 431C401.339 431 381.703 427.963 378.028 432.603C375.577 435.698 377 443.269 377 447L377 484C377 487.633 375.4 496.435 378.603 498.972C386.009 504.837 406.315 493.84 411.972 502.318C415.038 506.912 413 517.639 413 523L413 576L413 776C405.325 772.422 399.307 764.846 393 759.286C379.16 747.084 365.582 734.42 352 721.914C346.258 716.628 334.198 709.362 331.564 701.907C327.068 689.181 331 668.514 331 655L331 548L331 189L401 189L401 291L493 291L493 121L233 121z"/>
<path style="fill:#699790; stroke:none;" d="M494 121L495 122L494 121z"/>
<path style="fill:#feffff; stroke:none;" d="M509 121L509 951L565 905.424L687 804.804L739.999 761.25L761.972 741.961L763 726L763 690L764 564L768 121L686 121C686 259.62 688 398.401 688 537L688 651C688 660.939 687.41 671.084 688.089 681C688.394 685.45 690.183 690.732 687.972 694.961C682.708 705.03 667.604 713.368 659 720.589C637.001 739.053 615.353 757.972 593 776L590 121L509 121z"/>
<path style="fill:#699790; stroke:none;" d="M494.333 123.667L494.667 124.333L494.333 123.667z"/>
<path style="fill:#7daba3; stroke:none;" d="M508 125L509 126L508 125z"/>
<path style="fill:#699790; stroke:none;" d="M508.333 126.667L508.667 127.333L508.333 126.667z"/>
<path style="fill:#7daba3; stroke:none;" d="M508 128L508 928L509 928L509 360L509 197L509 150L508 128z"/>
<path style="fill:#699790; stroke:none;" d="M768 136L768 184L769 184C769 170.474 773.209 148.414 768 136z"/>
<path style="fill:#b7d6d2; stroke:none;" d="M590 137L590 280L591 280L591 180C591 167.794 594.707 148.218 590 137z"/>
<path style="fill:#7daba3; stroke:none;" d="M685 148L685 200L686 200L686 165L685 148z"/>
<path style="fill:#b7d6d2; stroke:none;" d="M767 180L767 216L768 216C768 205.613 771.011 189.56 767 180M331 189L331 545L331 654C331 669.634 327.572 690.019 332 705L333 705C329.884 691.913 332 676.424 332 663L332 581L332 319L332 228C332 216.842 335.308 199.266 331 189z"/>
<path style="fill:#699790; stroke:none;" d="M332 189L333 190L332 189M334 189L334 192L335 192L334 189M336 189L336 190L400 190L380 189L336 189z"/>
<path style="fill:#b7d6d2; stroke:none;" d="M400 189L401 190L400 189z"/>
<path style="fill:#7daba3; stroke:none;" d="M400 190L400 288L401 288L401 220L400 190z"/>
<path style="fill:#699790; stroke:none;" d="M685 200L685 256L686 256L686 218L685 200z"/>
<path style="fill:#b7d6d2; stroke:none;" d="M686 216L686 336L687 336L687 252L686 216z"/>
<path style="fill:#7daba3; stroke:none;" d="M767 216L767 276L768 276L768 235L767 216z"/>
<path style="fill:#699790; stroke:none;" d="M591 232L591 331L592 331L592 262L591 232M767 276L767 319L768 319C768 306.781 771.711 287.225 767 276z"/>
<path style="fill:#b7d6d2; stroke:none;" d="M766 280L766 328L767 328C767 314.474 771.209 292.414 766 280M400 288L401 289L400 288z"/>
<path style="fill:#699790; stroke:none;" d="M494 288L494 291L495 291L494 288z"/>
<path style="fill:#7daba3; stroke:none;" d="M400 289L401 290L400 289z"/>
<path style="fill:#b7d6d2; stroke:none;" d="M400 290L401 291L400 290z"/>
<path style="fill:#7daba3; stroke:none;" d="M401 291L401 292L405 292L401 291z"/>
<path style="fill:#699790; stroke:none;" d="M405 291L406 292L405 291z"/>
<path style="fill:#7daba3; stroke:none;" d="M406 291L406 292L490 292L464 291L406 291z"/>
<path style="fill:#699790; stroke:none;" d="M490 291L491 292L490 291z"/>
<path style="fill:#7daba3; stroke:none;" d="M491.667 291.333L492.333 291.667L491.667 291.333z"/>
<path style="fill:#699790; stroke:none;" d="M493 291L494 292L493 291z"/>
<path style="fill:#7daba3; stroke:none;" d="M766 328L766 376L767 376C767 362.474 771.209 340.414 766 328M591 331L591 416L592 416L592 357L591 331M686 336L686 400L687 400L687 356L686 336z"/>
<path style="fill:#699790; stroke:none;" d="M766 376L766 416L767 416C767 404.566 770.411 386.512 766 376M686 400L686 440L687 440C687 428.566 690.411 410.512 686 400z"/>
<path style="fill:#b7d6d2; stroke:none;" d="M765 407L765 472L766 472L766 428L765 407M591 416L591 525L592 525L592 449L591 416z"/>
<path style="fill:#699790; stroke:none;" d="M432 429L432 430L448 430L432 429z"/>
<path style="fill:#7daba3; stroke:none;" d="M448 429L448 430L465 430L448 429z"/>
<path style="fill:#b7d6d2; stroke:none;" d="M465 429L465 430L493 430L493 785L493 896C493 913.393 496.032 934.066 492 951C497.164 946.487 494 927.735 494 921L494 834L494 525L494 454C494 449.044 496.554 433.321 492.397 430.028C487.414 426.082 471.262 429 465 429z"/>
<path style="fill:#7daba3; stroke:none;" d="M493 429L494 430L493 429z"/>
<path style="fill:#699790; stroke:none;" d="M494 429L494 432L495 432L494 429M377 430L378 431L377 430z"/>
<path style="fill:#7daba3; stroke:none;" d="M378.667 430.333L379.333 430.667L378.667 430.333z"/>
<path style="fill:#699790; stroke:none;" d="M380 430L381 431L380 430z"/>
<path style="fill:#7daba3; stroke:none;" d="M381 430L381 431L400 431L381 430z"/>
<path style="fill:#b7d6d2; stroke:none;" d="M400 430L400 431L431 431L400 430M432 430L432 431L436 431L432 430z"/>
<path style="fill:#7daba3; stroke:none;" d="M376 431L377 432L376 431z"/>
<path style="fill:#b7d6d2; stroke:none;" d="M377 431L378 432L377 431z"/>
<path style="fill:#699790; stroke:none;" d="M376 432L376 499L377 499L377 453L376 432z"/>
<path style="fill:#7daba3; stroke:none;" d="M765 472L765 504L766 504L765 472z"/>
<path style="fill:#699790; stroke:none;" d="M592 488L592 576L593 576L593 515L592 488z"/>
<path style="fill:#7daba3; stroke:none;" d="M376 499L377 500L376 499z"/>
<path style="fill:#b7d6d2; stroke:none;" d="M377 499C381.951 504.666 404.495 501 412 501L412 776L413 776L413 573L413 521L411.972 501.603L402 500L377 499z"/>
<path style="fill:#699790; stroke:none;" d="M376 500L377 501L376 500M411 501L412 502L411 501z"/>
<path style="fill:#b7d6d2; stroke:none;" d="M687 504L687 544L688 544C688 532.566 691.411 514.512 687 504z"/>
<path style="fill:#699790; stroke:none;" d="M765 504L765 536L766 536L765 504z"/>
<path style="fill:#b7d6d2; stroke:none;" d="M764 536L764 584L765 584C765 570.474 769.209 548.414 764 536z"/>
<path style="fill:#7daba3; stroke:none;" d="M687 544L687 600L688 600L688 562L687 544M592 576L592 656L593 656L593 601L592 576M764 584L764 611L765 611L764 584z"/>
<path style="fill:#699790; stroke:none;" d="M687 600L687 686L688 686L688 627L687 600M764 611L764 640L765 640L764 611z"/>
<path style="fill:#b7d6d2; stroke:none;" d="M592 656L592 720L593 720L593 676L592 656M763 666L763 696L764 696L763 666M688 684L685 699C689.378 695.354 690.197 689.235 688 684z"/>
<path style="fill:#699790; stroke:none;" d="M687.333 694.667L687.667 695.333L687.333 694.667M686 696L687 697L686 696z"/>
<path style="fill:#7daba3; stroke:none;" d="M763 696L763 736L764 736C764 724.566 767.411 706.512 763 696z"/>
<path style="fill:#699790; stroke:none;" d="M683 697L684 698L683 697M685 697L686 698L685 697z"/>
<path style="fill:#7daba3; stroke:none;" d="M684 698L685 699L684 698z"/>
<path style="fill:#699790; stroke:none;" d="M683 699L684 700L683 699z"/>
<path style="fill:#7daba3; stroke:none;" d="M682 700L683 701L682 700z"/>
<path style="fill:#699790; stroke:none;" d="M680 701L679 703L680 701z"/>
<path style="fill:#7daba3; stroke:none;" d="M681 701L682 702L681 701z"/>
<path style="fill:#699790; stroke:none;" d="M332 702L333 703L332 702z"/>
<path style="fill:#7daba3; stroke:none;" d="M680 702L681 703L680 702M332 703L333 704L332 703M678 703L675 707L678 703z"/>
<path style="fill:#b7d6d2; stroke:none;" d="M679 703L680 704L679 703z"/>
<path style="fill:#7daba3; stroke:none;" d="M333 704L336 707L333 704z"/>
<path style="fill:#699790; stroke:none;" d="M334 704L335 705L334 704z"/>
<path style="fill:#b7d6d2; stroke:none;" d="M678 704L679 705L678 704M677 705L678 706L677 705M334 706L335 707L334 706M676 706L677 707L676 706z"/>
<path style="fill:#7daba3; stroke:none;" d="M336 707L337 708L336 707z"/>
<path style="fill:#699790; stroke:none;" d="M337 707L342 712L337 707M673 707L671 710L673 707z"/>
<path style="fill:#b7d6d2; stroke:none;" d="M674 707L675 708L674 707M337 708L338 709L337 708M673 708L674 709L673 708M338 709L339 710L338 709M672 709L673 710L672 709M339 710L340 711L339 710z"/>
<path style="fill:#699790; stroke:none;" d="M669 710L670 711L669 710z"/>
<path style="fill:#7daba3; stroke:none;" d="M670 710L669 712L670 710z"/>
<path style="fill:#b7d6d2; stroke:none;" d="M671 710L672 711L671 710M340 711L341 712L340 711M670 711L671 712L670 711M341 712L343 714L341 712z"/>
<path style="fill:#7daba3; stroke:none;" d="M342 712L343 713L342 712z"/>
<path style="fill:#699790; stroke:none;" d="M667 712L665 715L667 712z"/>
<path style="fill:#b7d6d2; stroke:none;" d="M668 712L669 713L668 712z"/>
<path style="fill:#7daba3; stroke:none;" d="M343 713L344 714L343 713z"/>
<path style="fill:#699790; stroke:none;" d="M663 713L664 714L663 713z"/>
<path style="fill:#b7d6d2; stroke:none;" d="M667 713L668 714L667 713z"/>
<path style="fill:#7daba3; stroke:none;" d="M344 714L346 716L344 714z"/>
<path style="fill:#699790; stroke:none;" d="M345 714L346 715L345 714z"/>
<path style="fill:#b7d6d2; stroke:none;" d="M666 714L667 715L666 714M344 715L345 716L344 715z"/>
<path style="fill:#7daba3; stroke:none;" d="M664 715L665 716L664 715z"/>
<path style="fill:#b7d6d2; stroke:none;" d="M665 715L666 716L665 715M346 716L355 725L346 716z"/>
<path style="fill:#699790; stroke:none;" d="M347 716L348 717L347 716M662 716L659 720L662 716z"/>
<path style="fill:#7daba3; stroke:none;" d="M663 716L664 717L663 716z"/>
<path style="fill:#699790; stroke:none;" d="M348 717L349 718L348 717z"/>
<path style="fill:#b7d6d2; stroke:none;" d="M662 717L663 718L662 717z"/>
<path style="fill:#699790; stroke:none;" d="M349 718L350 719L349 718z"/>
<path style="fill:#b7d6d2; stroke:none;" d="M661 718L662 719L661 718z"/>
<path style="fill:#699790; stroke:none;" d="M350 719L351 720L350 719M593 719L593 775L594 775L594 737L593 719z"/>
<path style="fill:#b7d6d2; stroke:none;" d="M660 719L661 720L660 719z"/>
<path style="fill:#699790; stroke:none;" d="M351 720L352 721L351 720z"/>
<path style="fill:#7daba3; stroke:none;" d="M658 720L659 721L658 720z"/>
<path style="fill:#b7d6d2; stroke:none;" d="M659 720L660 721L659 720z"/>
<path style="fill:#699790; stroke:none;" d="M352 721L353 722L352 721z"/>
<path style="fill:#7daba3; stroke:none;" d="M657 721L658 722L657 721M353 722L354 723L353 722z"/>
<path style="fill:#b7d6d2; stroke:none;" d="M656 722L657 723L656 722z"/>
<path style="fill:#699790; stroke:none;" d="M354 723L355 724L354 723M654 723L653 725L654 723z"/>
<path style="fill:#b7d6d2; stroke:none;" d="M655 723L656 724L655 723z"/>
<path style="fill:#7daba3; stroke:none;" d="M355 724L356 725L355 724z"/>
<path style="fill:#b7d6d2; stroke:none;" d="M654 724L655 725L654 724z"/>
<path style="fill:#7daba3; stroke:none;" d="M356 725L357 726L356 725M652 725L651 727L652 725z"/>
<path style="fill:#b7d6d2; stroke:none;" d="M653 725L654 726L653 725z"/>
<path style="fill:#7daba3; stroke:none;" d="M357 726L358 727L357 726z"/>
<path style="fill:#699790; stroke:none;" d="M358 726L359 727L358 726z"/>
<path style="fill:#b7d6d2; stroke:none;" d="M652 726L653 727L652 726M358 727L359 728L358 727z"/>
<path style="fill:#7daba3; stroke:none;" d="M650 727L651 728L650 727z"/>
<path style="fill:#699790; stroke:none;" d="M231 728L231 736L232 736L231 728z"/>
<path style="fill:#b7d6d2; stroke:none;" d="M359 728L360 729L359 728z"/>
<path style="fill:#699790; stroke:none;" d="M648 728L647 730L648 728z"/>
<path style="fill:#b7d6d2; stroke:none;" d="M649 728L650 729L649 728M360 729L365 734L360 729z"/>
<path style="fill:#699790; stroke:none;" d="M361 729L362 730L361 729M363 729L364 730L363 729z"/>
<path style="fill:#b7d6d2; stroke:none;" d="M648 729L649 730L648 729z"/>
<path style="fill:#699790; stroke:none;" d="M362 730L363 731L362 730z"/>
<path style="fill:#7daba3; stroke:none;" d="M646 730L645 732L646 730z"/>
<path style="fill:#b7d6d2; stroke:none;" d="M647 730L648 731L647 730z"/>
<path style="fill:#699790; stroke:none;" d="M363 731L364 732L363 731z"/>
<path style="fill:#b7d6d2; stroke:none;" d="M646 731L647 732L646 731z"/>
<path style="fill:#699790; stroke:none;" d="M364 732L365 733L364 732M643 732L642 734L643 732z"/>
<path style="fill:#7daba3; stroke:none;" d="M644 732L645 733L644 732M365 733L367 735L365 733z"/>
<path style="fill:#699790; stroke:none;" d="M366 733L367 734L366 733z"/>
<path style="fill:#b7d6d2; stroke:none;" d="M643 733L644 734L643 733z"/>
<path style="fill:#7daba3; stroke:none;" d="M641 734L640 736L641 734z"/>
<path style="fill:#b7d6d2; stroke:none;" d="M642 734L643 735L642 734z"/>
<path style="fill:#7daba3; stroke:none;" d="M367 735L368 736L367 735z"/>
<path style="fill:#b7d6d2; stroke:none;" d="M641 735L642 736L641 735z"/>
<path style="fill:#7daba3; stroke:none;" d="M368 736L370 738L368 736z"/>
<path style="fill:#699790; stroke:none;" d="M369 736L370 737L369 736z"/>
<path style="fill:#7daba3; stroke:none;" d="M639 736L640 737L639 736z"/>
<path style="fill:#699790; stroke:none;" d="M763 736L763 741L764 741L763 736M637 737L634 741L637 737z"/>
<path style="fill:#7daba3; stroke:none;" d="M638 737L639 738L638 737M370 738L371 739L370 738z"/>
<path style="fill:#699790; stroke:none;" d="M371 738L376 743L371 738z"/>
<path style="fill:#b7d6d2; stroke:none;" d="M637 738L638 739L637 738M371 739L372 740L371 739M636 739L637 740L636 739M372 740L373 741L372 740M635 740L636 741L635 740M373 741L374 742L373 741z"/>
<path style="fill:#7daba3; stroke:none;" d="M633 741L634 742L633 741z"/>
<path style="fill:#b7d6d2; stroke:none;" d="M634 741L635 742L634 741z"/>
<path style="fill:#7daba3; stroke:none;" d="M763 741L764 742L763 741z"/>
<path style="fill:#b7d6d2; stroke:none;" d="M374 742L375 743L374 742z"/>
<path style="fill:#699790; stroke:none;" d="M631 742L628 746L631 742z"/>
<path style="fill:#7daba3; stroke:none;" d="M632 742L633 743L632 742z"/>
<path style="fill:#b7d6d2; stroke:none;" d="M762 742L761 744L762 742z"/>
<path style="fill:#699790; stroke:none;" d="M763 742L764 743L763 742M376.667 743.333L377.333 743.667L376.667 743.333z"/>
<path style="fill:#7daba3; stroke:none;" d="M631 743L632 744L631 743M762 743L763 744L762 743M232 744L233 745L232 744M377 744L378 745L377 744z"/>
<path style="fill:#b7d6d2; stroke:none;" d="M630 744L631 745L630 744z"/>
<path style="fill:#7daba3; stroke:none;" d="M760 744L759 746L760 744z"/>
<path style="fill:#699790; stroke:none;" d="M761 744L762 745L761 744z"/>
<path style="fill:#7daba3; stroke:none;" d="M233 745L234 746L233 745M378 745L379 746L378 745z"/>
<path style="fill:#b7d6d2; stroke:none;" d="M629 745L630 746L629 745z"/>
<path style="fill:#699790; stroke:none;" d="M760 745L761 746L760 745M234 746L235 747L234 746z"/>
<path style="fill:#7daba3; stroke:none;" d="M379 746L380 747L379 746M627 746L625 749L627 746z"/>
<path style="fill:#b7d6d2; stroke:none;" d="M628 746L629 747L628 746M757 746L754 750L757 746z"/>
<path style="fill:#7daba3; stroke:none;" d="M758 746L759 747L758 746z"/>
<path style="fill:#699790; stroke:none;" d="M235 747L236 748L235 747z"/>
<path style="fill:#7daba3; stroke:none;" d="M380 747L381 748L380 747z"/>
<path style="fill:#b7d6d2; stroke:none;" d="M627 747L628 748L627 747z"/>
<path style="fill:#699790; stroke:none;" d="M757 747L758 748L757 747M236 748L237 749L236 748z"/>
<path style="fill:#7daba3; stroke:none;" d="M237 748L238 749L237 748M381 748L382 749L381 748z"/>
<path style="fill:#b7d6d2; stroke:none;" d="M626 748L627 749L626 748z"/>
<path style="fill:#699790; stroke:none;" d="M756 748L757 749L756 748z"/>
<path style="fill:#7daba3; stroke:none;" d="M238 749L239 750L238 749z"/>
<path style="fill:#b7d6d2; stroke:none;" d="M382 749L391 758L382 749z"/>
<path style="fill:#699790; stroke:none;" d="M383 749L384 750L383 749M623 749L624 750L623 749z"/>
<path style="fill:#b7d6d2; stroke:none;" d="M624 749L625 750L624 749z"/>
<path style="fill:#699790; stroke:none;" d="M755 749L756 750L755 749M238 750L238 751L241 752L238 750z"/>
<path style="fill:#b7d6d2; stroke:none;" d="M240 750L241 751L240 750z"/>
<path style="fill:#699790; stroke:none;" d="M384 750L385 751L384 750z"/>
<path style="fill:#7daba3; stroke:none;" d="M622 750L623 751L622 750z"/>
<path style="fill:#b7d6d2; stroke:none;" d="M623 750L624 751L623 750z"/>
<path style="fill:#7daba3; stroke:none;" d="M753 750L754 751L753 750z"/>
<path style="fill:#b7d6d2; stroke:none;" d="M241 751L242 752L241 751z"/>
<path style="fill:#699790; stroke:none;" d="M385 751L386 752L385 751M621 751L622 752L621 751z"/>
<path style="fill:#b7d6d2; stroke:none;" d="M622 751L623 752L622 751z"/>
<path style="fill:#7daba3; stroke:none;" d="M752 751L753 752L752 751M242 752L243 753L242 752M386 752L387 753L386 752M620 752L621 753L620 752z"/>
<path style="fill:#b7d6d2; stroke:none;" d="M750 752L749 754L750 752z"/>
<path style="fill:#699790; stroke:none;" d="M751 752L752 753L751 752z"/>
<path style="fill:#7daba3; stroke:none;" d="M243 753L244 754L243 753z"/>
<path style="fill:#b7d6d2; stroke:none;" d="M244 753L247 756L244 753z"/>
<path style="fill:#7daba3; stroke:none;" d="M387 753L388 754L387 753z"/>
<path style="fill:#699790; stroke:none;" d="M618 753L615 757L618 753z"/>
<path style="fill:#7daba3; stroke:none;" d="M619 753L620 754L619 753z"/>
<path style="fill:#699790; stroke:none;" d="M750 753L751 754L750 753M244 754L245 755L244 754z"/>
<path style="fill:#7daba3; stroke:none;" d="M388 754L389 755L388 754z"/>
<path style="fill:#b7d6d2; stroke:none;" d="M618 754L619 755L618 754M747 754L748 755L747 754z"/>
<path style="fill:#7daba3; stroke:none;" d="M748 754L749 755L748 754z"/>
<path style="fill:#699790; stroke:none;" d="M749 754L750 755L749 754M245 755L246 756L245 755z"/>
<path style="fill:#7daba3; stroke:none;" d="M389 755L390 756L389 755z"/>
<path style="fill:#b7d6d2; stroke:none;" d="M617 755L618 756L617 755z"/>
<path style="fill:#7daba3; stroke:none;" d="M747 755L748 756L747 755z"/>
<path style="fill:#699790; stroke:none;" d="M246 756L247 757L246 756z"/>
<path style="fill:#7daba3; stroke:none;" d="M247 756L248 757L247 756M390 756L391 757L390 756z"/>
<path style="fill:#b7d6d2; stroke:none;" d="M616 756L617 757L616 756M745 756L744 758L745 756z"/>
<path style="fill:#7daba3; stroke:none;" d="M746 756L747 757L746 756M248 757L249 758L248 757z"/>
<path style="fill:#b7d6d2; stroke:none;" d="M249 757L252 760L249 757z"/>
<path style="fill:#7daba3; stroke:none;" d="M391 757L392 758L391 757M614 757L613 759L614 757z"/>
<path style="fill:#b7d6d2; stroke:none;" d="M615 757L616 758L615 757z"/>
<path style="fill:#7daba3; stroke:none;" d="M745 757L746 758L745 757z"/>
<path style="fill:#699790; stroke:none;" d="M249 758L250 759L249 758z"/>
<path style="fill:#7daba3; stroke:none;" d="M392 758L394 760L392 758z"/>
<path style="fill:#699790; stroke:none;" d="M393 758L394 759L393 758M612 758L610 761L612 758z"/>
<path style="fill:#b7d6d2; stroke:none;" d="M614 758L615 759L614 758M743 758L744 759L743 758z"/>
<path style="fill:#699790; stroke:none;" d="M250 759L251 760L250 759z"/>
<path style="fill:#b7d6d2; stroke:none;" d="M612 759L613 760L612 759z"/>
<path style="fill:#7daba3; stroke:none;" d="M742 759L743 760L742 759z"/>
<path style="fill:#699790; stroke:none;" d="M251 760L252 761L251 760z"/>
<path style="fill:#7daba3; stroke:none;" d="M252 760L255 763L252 760z"/>
<path style="fill:#b7d6d2; stroke:none;" d="M253 760L254 761L253 760M394 760L402 768L394 760z"/>
<path style="fill:#699790; stroke:none;" d="M395 760L396 761L395 760z"/>
<path style="fill:#b7d6d2; stroke:none;" d="M611 760L612 761L611 760M740 760L737 764L740 760z"/>
<path style="fill:#7daba3; stroke:none;" d="M741 760L742 761L741 760z"/>
<path style="fill:#b7d6d2; stroke:none;" d="M254 761L255 762L254 761z"/>
<path style="fill:#699790; stroke:none;" d="M396 761L397 762L396 761z"/>
<path style="fill:#7daba3; stroke:none;" d="M609 761L608 763L609 761z"/>
<path style="fill:#b7d6d2; stroke:none;" d="M610 761L611 762L610 761z"/>
<path style="fill:#699790; stroke:none;" d="M740 761L741 762L740 761z"/>
<path style="fill:#b7d6d2; stroke:none;" d="M255 762L256 763L255 762z"/>
<path style="fill:#699790; stroke:none;" d="M397 762L398 763L397 762z"/>
<path style="fill:#b7d6d2; stroke:none;" d="M609 762L610 763L609 762z"/>
<path style="fill:#699790; stroke:none;" d="M739 762L740 763L739 762z"/>
<path style="fill:#b7d6d2; stroke:none;" d="M256 763L257 764L256 763z"/>
<path style="fill:#699790; stroke:none;" d="M398 763L399 764L398 763M606 763L603 767L606 763z"/>
<path style="fill:#7daba3; stroke:none;" d="M607 763L608 764L607 763z"/>
<path style="fill:#699790; stroke:none;" d="M738 763L739 764L738 763z"/>
<path style="fill:#7daba3; stroke:none;" d="M257 764L258 765L257 764z"/>
<path style="fill:#699790; stroke:none;" d="M399 764L400 765L399 764z"/>
<path style="fill:#b7d6d2; stroke:none;" d="M606 764L607 765L606 764z"/>
<path style="fill:#7daba3; stroke:none;" d="M736 764L737 765L736 764z"/>
<path style="fill:#699790; stroke:none;" d="M737 764L738 765L737 764z"/>
<path style="fill:#7daba3; stroke:none;" d="M258 765L259 766L258 765z"/>
<path style="fill:#b7d6d2; stroke:none;" d="M259 765L262 768L259 765z"/>
<path style="fill:#7daba3; stroke:none;" d="M400 765L401 766L400 765z"/>
<path style="fill:#b7d6d2; stroke:none;" d="M605 765L606 766L605 765M734 765L732 768L734 765z"/>
<path style="fill:#7daba3; stroke:none;" d="M735 765L736 766L735 765z"/>
<path style="fill:#699790; stroke:none;" d="M256 766L257 767L256 766M259 766L260 767L259 766z"/>
<path style="fill:#7daba3; stroke:none;" d="M401 766L402 767L401 766z"/>
<path style="fill:#b7d6d2; stroke:none;" d="M604 766L605 767L604 766z"/>
<path style="fill:#7daba3; stroke:none;" d="M734 766L735 767L734 766z"/>
<path style="fill:#699790; stroke:none;" d="M260 767L261 768L260 767z"/>
<path style="fill:#7daba3; stroke:none;" d="M402 767L403 768L402 767M602 767L603 768L602 767z"/>
<path style="fill:#b7d6d2; stroke:none;" d="M603 767L604 768L603 767z"/>
<path style="fill:#699790; stroke:none;" d="M733 767L734 768L733 767M735 767L736 768L735 767z"/>
<path style="fill:#7daba3; stroke:none;" d="M262 768L264 770L262 768z"/>
<path style="fill:#b7d6d2; stroke:none;" d="M263 768L264 769L263 768z"/>
<path style="fill:#7daba3; stroke:none;" d="M403 768L404 769L403 768z"/>
<path style="fill:#699790; stroke:none;" d="M404 768L407 771L404 768z"/>
<path style="fill:#7daba3; stroke:none;" d="M601 768L602 769L601 768M731 768L729 771L731 768z"/>
<path style="fill:#699790; stroke:none;" d="M732 768L733 769L732 768M262 769L263 770L262 769z"/>
<path style="fill:#b7d6d2; stroke:none;" d="M264 769L267 772L264 769M404 769L405 770L404 769M600.667 769.333L601.333 769.667L600.667 769.333M729 769L730 770L729 769z"/>
<path style="fill:#699790; stroke:none;" d="M731 769L732 770L731 769M264 770L265 771L264 770z"/>
<path style="fill:#b7d6d2; stroke:none;" d="M405 770L406 771L405 770z"/>
<path style="fill:#699790; stroke:none;" d="M598 770L597 772L598 770z"/>
<path style="fill:#b7d6d2; stroke:none;" d="M599 770L600 771L599 770M728 770L725 774L728 770z"/>
<path style="fill:#699790; stroke:none;" d="M265 771L266 772L265 771z"/>
<path style="fill:#b7d6d2; stroke:none;" d="M406 771L407 772L406 771M598 771L599 772L598 771z"/>
<path style="fill:#699790; stroke:none;" d="M728 771L729 772L728 771z"/>
<path style="fill:#7daba3; stroke:none;" d="M267 772L268 773L267 772z"/>
<path style="fill:#b7d6d2; stroke:none;" d="M268 772L271 775L268 772M407 772L411 776L407 772z"/>
<path style="fill:#699790; stroke:none;" d="M408 772L409 773L408 772z"/>
<path style="fill:#7daba3; stroke:none;" d="M596 772L595 774L596 772z"/>
<path style="fill:#b7d6d2; stroke:none;" d="M597 772L598 773L597 772z"/>
<path style="fill:#699790; stroke:none;" d="M727 772L728 773L727 772M268 773L269 774L268 773M409 773L410 774L409 773z"/>
<path style="fill:#b7d6d2; stroke:none;" d="M596 773L597 774L596 773z"/>
<path style="fill:#699790; stroke:none;" d="M726 773L727 774L726 773M269 774L270 775L269 774M410 774L411 775L410 774z"/>
<path style="fill:#7daba3; stroke:none;" d="M594 774L595 775L594 774z"/>
<path style="fill:#b7d6d2; stroke:none;" d="M723 774L721 777L723 774z"/>
<path style="fill:#7daba3; stroke:none;" d="M724 774L725 775L724 774z"/>
<path style="fill:#699790; stroke:none;" d="M270 775L271 776L270 775z"/>
<path style="fill:#7daba3; stroke:none;" d="M271 775L272 776L271 775z"/>
<path style="fill:#699790; stroke:none;" d="M411 775L412 776L411 775z"/>
<path style="fill:#b7d6d2; stroke:none;" d="M593 775L594 776L593 775z"/>
<path style="fill:#699790; stroke:none;" d="M723 775L724 776L723 775z"/>
<path style="fill:#7daba3; stroke:none;" d="M272 776L274 778L272 776z"/>
<path style="fill:#b7d6d2; stroke:none;" d="M273 776L274 777L273 776z"/>
<path style="fill:#699790; stroke:none;" d="M722 776L723 777L722 776z"/>
<path style="fill:#b7d6d2; stroke:none;" d="M274 777L276 779L274 777z"/>
<path style="fill:#7daba3; stroke:none;" d="M720 777L721 778L720 777z"/>
<path style="fill:#699790; stroke:none;" d="M721 777L722 778L721 777M272 778L273 779L272 778M274 778L275 779L274 778z"/>
<path style="fill:#b7d6d2; stroke:none;" d="M718 778L714 783L718 778z"/>
<path style="fill:#7daba3; stroke:none;" d="M719 778L720 779L719 778M276 779L277 780L276 779M718 779L719 780L718 779M277 780L279 782L277 780z"/>
<path style="fill:#b7d6d2; stroke:none;" d="M278 780L279 781L278 780z"/>
<path style="fill:#699790; stroke:none;" d="M717 780L718 781L717 780M275 781L276 782L275 781z"/>
<path style="fill:#b7d6d2; stroke:none;" d="M279 781L282 783L282 782L279 781z"/>
<path style="fill:#699790; stroke:none;" d="M716 781L717 782L716 781M279 782L280 783L279 782M715 782L716 783L715 782M280 783L281 784L280 783z"/>
<path style="fill:#7daba3; stroke:none;" d="M281 783L282 784L281 783z"/>
<path style="fill:#b7d6d2; stroke:none;" d="M712 783L713 784L712 783z"/>
<path style="fill:#7daba3; stroke:none;" d="M713 783L714 784L713 783M282 784L283 785L282 784z"/>
<path style="fill:#b7d6d2; stroke:none;" d="M283 784L286 787L283 784z"/>
<path style="fill:#699790; stroke:none;" d="M712 784L713 785L712 784M283 785L284 786L283 785z"/>
<path style="fill:#b7d6d2; stroke:none;" d="M710 785L709 787L710 785z"/>
<path style="fill:#699790; stroke:none;" d="M711 785L712 786L711 785M284 786L285 787L284 786M710 786L711 787L710 786M285 787L287 789L285 787z"/>
<path style="fill:#7daba3; stroke:none;" d="M286 787L288 789L286 787z"/>
<path style="fill:#b7d6d2; stroke:none;" d="M287 787L288 788L287 787z"/>
<path style="fill:#7daba3; stroke:none;" d="M708 787L709 788L708 787z"/>
<path style="fill:#699790; stroke:none;" d="M709 787L710 788L709 787z"/>
<path style="fill:#b7d6d2; stroke:none;" d="M288 788L291 791L288 788z"/>
<path style="fill:#7daba3; stroke:none;" d="M707 788L708 789L707 788z"/>
<path style="fill:#699790; stroke:none;" d="M288 789L289 790L288 789z"/>
<path style="fill:#7daba3; stroke:none;" d="M706 789L707 790L706 789z"/>
<path style="fill:#699790; stroke:none;" d="M289 790L290 791L289 790z"/>
<path style="fill:#b7d6d2; stroke:none;" d="M704 790L705 791L704 790z"/>
<path style="fill:#699790; stroke:none;" d="M705 790L706 791L705 790z"/>
<path style="fill:#7daba3; stroke:none;" d="M291 791L292 792L291 791z"/>
<path style="fill:#b7d6d2; stroke:none;" d="M292 791L296 795L292 791M703 791L704 792L703 791z"/>
<path style="fill:#699790; stroke:none;" d="M292 792L293 793L292 792z"/>
<path style="fill:#7daba3; stroke:none;" d="M702 792L703 793L702 792z"/>
<path style="fill:#699790; stroke:none;" d="M293 793L294 794L293 793z"/>
<path style="fill:#b7d6d2; stroke:none;" d="M700 793L697 797L700 793z"/>
<path style="fill:#7daba3; stroke:none;" d="M701 793L702 794L701 793z"/>
<path style="fill:#699790; stroke:none;" d="M294 794L295 795L294 794M700 794L701 795L700 794z"/>
<path style="fill:#7daba3; stroke:none;" d="M296 795L298 797L296 795z"/>
<path style="fill:#b7d6d2; stroke:none;" d="M297 795L298 796L297 795z"/>
<path style="fill:#699790; stroke:none;" d="M699 795L700 796L699 795M702 795L703 796L702 795z"/>
<path style="fill:#b7d6d2; stroke:none;" d="M298 796L300 798L298 796z"/>
<path style="fill:#699790; stroke:none;" d="M698 796L699 797L698 796M298 797L299 798L298 797z"/>
<path style="fill:#b7d6d2; stroke:none;" d="M695 797L692 801L695 797z"/>
<path style="fill:#7daba3; stroke:none;" d="M696 797L697 798L696 797z"/>
<path style="fill:#699790; stroke:none;" d="M697 797L698 798L697 797z"/>
<path style="fill:#7daba3; stroke:none;" d="M300 798L303 801L300 798M695 798L696 799L695 798z"/>
<path style="fill:#699790; stroke:none;" d="M300 799L301 800L300 799z"/>
<path style="fill:#b7d6d2; stroke:none;" d="M302 799L303 800L302 799z"/>
<path style="fill:#7daba3; stroke:none;" d="M694 799L695 800L694 799z"/>
<path style="fill:#b7d6d2; stroke:none;" d="M303 800L306 803L303 800z"/>
<path style="fill:#699790; stroke:none;" d="M693 800L694 801L693 800M303 801L304 802L303 801z"/>
<path style="fill:#7daba3; stroke:none;" d="M691 801L692 802L691 801z"/>
<path style="fill:#699790; stroke:none;" d="M304 802L305 803L304 802z"/>
<path style="fill:#b7d6d2; stroke:none;" d="M689 802L686 806L689 802z"/>
<path style="fill:#7daba3; stroke:none;" d="M690 802L691 803L690 802M306 803L307 804L306 803M689 803L690 804L689 803z"/>
<path style="fill:#699790; stroke:none;" d="M307 804L310 807L307 804z"/>
<path style="fill:#b7d6d2; stroke:none;" d="M308 804L309 805L308 804z"/>
<path style="fill:#699790; stroke:none;" d="M688 804L689 805L688 804z"/>
<path style="fill:#b7d6d2; stroke:none;" d="M309 805L310 806L309 805z"/>
<path style="fill:#699790; stroke:none;" d="M687 805L688 806L687 805z"/>
<path style="fill:#7daba3; stroke:none;" d="M310 806L311 807L310 806z"/>
<path style="fill:#b7d6d2; stroke:none;" d="M684 806L681 810L684 806z"/>
<path style="fill:#7daba3; stroke:none;" d="M685 806L686 807L685 806M311 807L312 808L311 807M684 807L685 808L684 807z"/>
<path style="fill:#699790; stroke:none;" d="M312 808L315 811L312 808z"/>
<path style="fill:#b7d6d2; stroke:none;" d="M313 808L314 809L313 808z"/>
<path style="fill:#7daba3; stroke:none;" d="M683 808L684 809L683 808z"/>
<path style="fill:#b7d6d2; stroke:none;" d="M314 809L315 810L314 809z"/>
<path style="fill:#699790; stroke:none;" d="M682 809L683 810L682 809z"/>
<path style="fill:#7daba3; stroke:none;" d="M315 810L318 813L315 810z"/>
<path style="fill:#b7d6d2; stroke:none;" d="M316 810L317 811L316 810z"/>
<path style="fill:#7daba3; stroke:none;" d="M680 810L681 811L680 810z"/>
<path style="fill:#699790; stroke:none;" d="M681 810L682 811L681 810z"/>
<path style="fill:#b7d6d2; stroke:none;" d="M317 811L318 812L317 811z"/>
<path style="fill:#7daba3; stroke:none;" d="M679 811L680 812L679 811z"/>
<path style="fill:#b7d6d2; stroke:none;" d="M318 812L320 814L318 812M677 812L675 815L677 812z"/>
<path style="fill:#7daba3; stroke:none;" d="M678 812L679 813L678 812z"/>
<path style="fill:#699790; stroke:none;" d="M318 813L319 814L318 813M677 813L678 814L677 813z"/>
<path style="fill:#b7d6d2; stroke:none;" d="M320 814L320 815L325 818L320 814z"/>
<path style="fill:#699790; stroke:none;" d="M676 814L677 815L676 814z"/>
<path style="fill:#7daba3; stroke:none;" d="M321 815L322 816L321 815z"/>
<path style="fill:#b7d6d2; stroke:none;" d="M674 815L675 816L674 815z"/>
<path style="fill:#699790; stroke:none;" d="M322 816L323 817L322 816z"/>
<path style="fill:#b7d6d2; stroke:none;" d="M672 816L669 820L672 816z"/>
<path style="fill:#7daba3; stroke:none;" d="M673 816L674 817L673 816z"/>
<path style="fill:#699790; stroke:none;" d="M323 817L324 818L323 817z"/>
<path style="fill:#7daba3; stroke:none;" d="M672 817L673 818L672 817M325 818L326 819L325 818M671 818L672 819L671 818M326 819L327 820L326 819z"/>
<path style="fill:#b7d6d2; stroke:none;" d="M327 819L330 822L327 819z"/>
<path style="fill:#699790; stroke:none;" d="M670 819L671 820L670 819M327 820L328 821L327 820z"/>
<path style="fill:#b7d6d2; stroke:none;" d="M667 820L664 824L667 820z"/>
<path style="fill:#7daba3; stroke:none;" d="M668 820L669 821L668 820z"/>
<path style="fill:#699790; stroke:none;" d="M669 820L670 821L669 820M328 821L329 822L328 821z"/>
<path style="fill:#7daba3; stroke:none;" d="M667 821L668 822L667 821z"/>
<path style="fill:#699790; stroke:none;" d="M329 822L330 823L329 822z"/>
<path style="fill:#7daba3; stroke:none;" d="M330 822L331 823L330 822M666 822L667 823L666 822M331 823L332 824L331 823z"/>
<path style="fill:#b7d6d2; stroke:none;" d="M332 823L335 826L332 823z"/>
<path style="fill:#7daba3; stroke:none;" d="M665 823L666 824L665 823z"/>
<path style="fill:#699790; stroke:none;" d="M332 824L333 825L332 824z"/>
<path style="fill:#7daba3; stroke:none;" d="M663 824L664 825L663 824z"/>
<path style="fill:#699790; stroke:none;" d="M333 825L334 826L333 825z"/>
<path style="fill:#b7d6d2; stroke:none;" d="M661 825L658 829L661 825z"/>
<path style="fill:#7daba3; stroke:none;" d="M662 825L663 826L662 825M335 826L337 828L335 826z"/>
<path style="fill:#b7d6d2; stroke:none;" d="M336 826L337 827L336 826z"/>
<path style="fill:#7daba3; stroke:none;" d="M661 826L662 827L661 826z"/>
<path style="fill:#b7d6d2; stroke:none;" d="M337 827L340 830L337 827z"/>
<path style="fill:#7daba3; stroke:none;" d="M660 827L661 828L660 827z"/>
<path style="fill:#699790; stroke:none;" d="M337 828L338 829L337 828M659 828L660 829L659 828M338 829L339 830L338 829z"/>
<path style="fill:#7daba3; stroke:none;" d="M657 829L658 830L657 829z"/>
<path style="fill:#699790; stroke:none;" d="M658 829L659 830L658 829z"/>
<path style="fill:#7daba3; stroke:none;" d="M340 830L343 833L340 830z"/>
<path style="fill:#b7d6d2; stroke:none;" d="M341 830L342 831L341 830z"/>
<path style="fill:#7daba3; stroke:none;" d="M656 830L657 831L656 830z"/>
<path style="fill:#b7d6d2; stroke:none;" d="M342 831L343 832L342 831M654 831L651 835L654 831z"/>
<path style="fill:#7daba3; stroke:none;" d="M655 831L656 832L655 831z"/>
<path style="fill:#b7d6d2; stroke:none;" d="M343 832L343 833L349 837L343 832z"/>
<path style="fill:#699790; stroke:none;" d="M654 832L655 833L654 832M343 833L344 834L343 833M653 833L654 834L653 833z"/>
<path style="fill:#7daba3; stroke:none;" d="M345 834L346 835L345 834z"/>
<path style="fill:#699790; stroke:none;" d="M652 834L653 835L652 834z"/>
<path style="fill:#7daba3; stroke:none;" d="M346 835L347 836L346 835z"/>
<path style="fill:#b7d6d2; stroke:none;" d="M649 835L646 839L649 835z"/>
<path style="fill:#7daba3; stroke:none;" d="M650 835L651 836L650 835z"/>
<path style="fill:#699790; stroke:none;" d="M347 836L348 837L347 836z"/>
<path style="fill:#7daba3; stroke:none;" d="M649 836L650 837L649 836z"/>
<path style="fill:#699790; stroke:none;" d="M348 837L349 838L348 837z"/>
<path style="fill:#7daba3; stroke:none;" d="M349 837L350 838L349 837z"/>
<path style="fill:#699790; stroke:none;" d="M648 837L649 838L648 837z"/>
<path style="fill:#7daba3; stroke:none;" d="M350 838L351 839L350 838z"/>
<path style="fill:#699790; stroke:none;" d="M647 838L648 839L647 838M351 839L354 842L351 839z"/>
<path style="fill:#b7d6d2; stroke:none;" d="M352 839L353 840L352 839z"/>
<path style="fill:#7daba3; stroke:none;" d="M645 839L646 840L645 839z"/>
<path style="fill:#699790; stroke:none;" d="M646 839L647 840L646 839z"/>
<path style="fill:#b7d6d2; stroke:none;" d="M353 840L354 841L353 840M643 840L641 843L643 840z"/>
<path style="fill:#7daba3; stroke:none;" d="M644 840L645 841L644 840M354 841L355 842L354 841M643 841L644 842L643 841M355 842L356 843L355 842z"/>
<path style="fill:#b7d6d2; stroke:none;" d="M356 842L359 845L356 842z"/>
<path style="fill:#699790; stroke:none;" d="M642 842L643 843L642 842M356 843L357 844L356 843z"/>
<path style="fill:#7daba3; stroke:none;" d="M640 843L641 844L640 843z"/>
<path style="fill:#699790; stroke:none;" d="M641 843L642 844L641 843M357 844L358 845L357 844z"/>
<path style="fill:#b7d6d2; stroke:none;" d="M638 844L635 848L638 844z"/>
<path style="fill:#7daba3; stroke:none;" d="M639 844L640 845L639 844z"/>
<path style="fill:#699790; stroke:none;" d="M358 845L359 846L358 845z"/>
<path style="fill:#7daba3; stroke:none;" d="M359 845L360 846L359 845M638 845L639 846L638 845M360 846L362 848L360 846z"/>
<path style="fill:#b7d6d2; stroke:none;" d="M361 846L362 847L361 846z"/>
<path style="fill:#699790; stroke:none;" d="M637 846L638 847L637 846z"/>
<path style="fill:#b7d6d2; stroke:none;" d="M362 847L364 849L362 847z"/>
<path style="fill:#699790; stroke:none;" d="M636 847L637 848L636 847M362 848L363 849L362 848z"/>
<path style="fill:#7daba3; stroke:none;" d="M634 848L635 849L634 848M364 849L365 850L364 849z"/>
<path style="fill:#b7d6d2; stroke:none;" d="M632 849L633 850L632 849z"/>
<path style="fill:#7daba3; stroke:none;" d="M633 849L634 850L633 849M365 850L367 852L365 850z"/>
<path style="fill:#b7d6d2; stroke:none;" d="M366 850L367 851L366 850z"/>
<path style="fill:#7daba3; stroke:none;" d="M632 850L633 851L632 850z"/>
<path style="fill:#699790; stroke:none;" d="M363 851L364 852L363 851z"/>
<path style="fill:#b7d6d2; stroke:none;" d="M367 851L369 853L367 851M630 851L631 852L630 851z"/>
<path style="fill:#699790; stroke:none;" d="M631 851L632 852L631 851M367 852L368 853L367 852z"/>
<path style="fill:#7daba3; stroke:none;" d="M629 852L630 853L629 852z"/>
<path style="fill:#699790; stroke:none;" d="M630 852L631 853L630 852M368 853L369 854L368 853z"/>
<path style="fill:#7daba3; stroke:none;" d="M369 853L370 854L369 853z"/>
<path style="fill:#b7d6d2; stroke:none;" d="M628 853L629 854L628 853z"/>
<path style="fill:#699790; stroke:none;" d="M629 853L630 854L629 853M367 854L368 855L367 854z"/>
<path style="fill:#7daba3; stroke:none;" d="M370 854L371 855L370 854z"/>
<path style="fill:#b7d6d2; stroke:none;" d="M371 854L374 857L371 854z"/>
<path style="fill:#7daba3; stroke:none;" d="M627 854L628 855L627 854z"/>
<path style="fill:#699790; stroke:none;" d="M371 855L372 856L371 855z"/>
<path style="fill:#b7d6d2; stroke:none;" d="M625 855L623 858L625 855z"/>
<path style="fill:#7daba3; stroke:none;" d="M626 855L627 856L626 855z"/>
<path style="fill:#699790; stroke:none;" d="M372 856L373 857L372 856M625 856L626 857L625 856z"/>
<path style="fill:#7daba3; stroke:none;" d="M374 857L376 859L374 857z"/>
<path style="fill:#b7d6d2; stroke:none;" d="M375 857L376 858L375 857z"/>
<path style="fill:#699790; stroke:none;" d="M624 857L625 858L624 857z"/>
<path style="fill:#b7d6d2; stroke:none;" d="M376 858L379 861L376 858z"/>
<path style="fill:#7daba3; stroke:none;" d="M622 858L623 859L622 858z"/>
<path style="fill:#699790; stroke:none;" d="M623 858L624 859L623 858M376 859L377 860L376 859z"/>
<path style="fill:#b7d6d2; stroke:none;" d="M620 859L617 863L620 859z"/>
<path style="fill:#7daba3; stroke:none;" d="M621 859L622 860L621 859z"/>
<path style="fill:#699790; stroke:none;" d="M377 860L378 861L377 860M620 860L621 861L620 860z"/>
<path style="fill:#7daba3; stroke:none;" d="M379 861L381 863L379 861z"/>
<path style="fill:#b7d6d2; stroke:none;" d="M380 861L381 862L380 861z"/>
<path style="fill:#699790; stroke:none;" d="M619 861L620 862L619 861z"/>
<path style="fill:#b7d6d2; stroke:none;" d="M381 862L383 864L381 862z"/>
<path style="fill:#699790; stroke:none;" d="M618 862L619 863L618 862M381 863L382 864L381 863z"/>
<path style="fill:#7daba3; stroke:none;" d="M616 863L617 864L616 863z"/>
<path style="fill:#699790; stroke:none;" d="M617 863L618 864L617 863M382 864L383 865L382 864z"/>
<path style="fill:#7daba3; stroke:none;" d="M383 864L384 865L383 864z"/>
<path style="fill:#b7d6d2; stroke:none;" d="M614 864L612 867L614 864z"/>
<path style="fill:#699790; stroke:none;" d="M615 864L616 865L615 864z"/>
<path style="fill:#7daba3; stroke:none;" d="M384 865L386 867L384 865z"/>
<path style="fill:#b7d6d2; stroke:none;" d="M385 865L386 866L385 865z"/>
<path style="fill:#7daba3; stroke:none;" d="M614 865L615 866L614 865z"/>
<path style="fill:#b7d6d2; stroke:none;" d="M386 866L388 868L386 866z"/>
<path style="fill:#699790; stroke:none;" d="M613 866L614 867L613 866M386 867L387 868L386 867z"/>
<path style="fill:#7daba3; stroke:none;" d="M611 867L612 868L611 867z"/>
<path style="fill:#699790; stroke:none;" d="M612 867L613 868L612 867M387 868L388 869L387 868z"/>
<path style="fill:#7daba3; stroke:none;" d="M388 868L389 869L388 868z"/>
<path style="fill:#b7d6d2; stroke:none;" d="M609 868L606 872L609 868z"/>
<path style="fill:#7daba3; stroke:none;" d="M610 868L611 869L610 868M389 869L391 871L389 869z"/>
<path style="fill:#b7d6d2; stroke:none;" d="M390 869L391 870L390 869z"/>
<path style="fill:#7daba3; stroke:none;" d="M609 869L610 870L609 869z"/>
<path style="fill:#b7d6d2; stroke:none;" d="M391 870L393 872L391 870z"/>
<path style="fill:#699790; stroke:none;" d="M608 870L609 871L608 870M391 871L392 872L391 871M607 871L608 872L607 871z"/>
<path style="fill:#b7d6d2; stroke:none;" d="M393 872L394 873L393 872z"/>
<path style="fill:#7daba3; stroke:none;" d="M605 872L606 873L605 872M394 873L396 875L394 873z"/>
<path style="fill:#b7d6d2; stroke:none;" d="M395 873L396 874L395 873M603 873L601 876L603 873z"/>
<path style="fill:#7daba3; stroke:none;" d="M604 873L605 874L604 873z"/>
<path style="fill:#b7d6d2; stroke:none;" d="M396 874L399 877L396 874z"/>
<path style="fill:#7daba3; stroke:none;" d="M603 874L604 875L603 874z"/>
<path style="fill:#699790; stroke:none;" d="M396 875L397 876L396 875M602 875L603 876L602 875M397 876L398 877L397 876z"/>
<path style="fill:#7daba3; stroke:none;" d="M600 876L601 877L600 876z"/>
<path style="fill:#699790; stroke:none;" d="M601 876L602 877L601 876M398 877L399 878L398 877z"/>
<path style="fill:#7daba3; stroke:none;" d="M399 877L402 880L399 877z"/>
<path style="fill:#b7d6d2; stroke:none;" d="M400 877L401 878L400 877M594 882L600 878L594 882M401 878L402 879L401 878z"/>
<path style="fill:#7daba3; stroke:none;" d="M598 878L599 879L598 878z"/>
<path style="fill:#b7d6d2; stroke:none;" d="M402 879L403 880L402 879z"/>
<path style="fill:#699790; stroke:none;" d="M597 879L598 880L597 879z"/>
<path style="fill:#7daba3; stroke:none;" d="M403 880L404 881L403 880z"/>
<path style="fill:#699790; stroke:none;" d="M596 880L597 881L596 880z"/>
<path style="fill:#7daba3; stroke:none;" d="M404 881L405 882L404 881z"/>
<path style="fill:#699790; stroke:none;" d="M595 881L596 882L595 881M405 882L407 884L405 882z"/>
<path style="fill:#b7d6d2; stroke:none;" d="M406 882L407 883L406 882M592 882L589 886L592 882z"/>
<path style="fill:#7daba3; stroke:none;" d="M593 882L594 883L593 882z"/>
<path style="fill:#699790; stroke:none;" d="M594 882L595 883L594 882M403 883L404 884L403 883z"/>
<path style="fill:#b7d6d2; stroke:none;" d="M407 883L408 884L407 883z"/>
<path style="fill:#699790; stroke:none;" d="M592 883L593 884L592 883z"/>
<path style="fill:#7daba3; stroke:none;" d="M408 884L411 887L408 884z"/>
<path style="fill:#b7d6d2; stroke:none;" d="M409 884L410 885L409 884z"/>
<path style="fill:#699790; stroke:none;" d="M591 884L592 885L591 884z"/>
<path style="fill:#b7d6d2; stroke:none;" d="M410 885L411 886L410 885z"/>
<path style="fill:#699790; stroke:none;" d="M590 885L591 886L590 885z"/>
<path style="fill:#b7d6d2; stroke:none;" d="M411 886L413 888L411 886M588 886L589 887L588 886z"/>
<path style="fill:#699790; stroke:none;" d="M591 886L592 887L591 886M411 887L412 888L411 887z"/>
<path style="fill:#b7d6d2; stroke:none;" d="M586 887L584 890L586 887z"/>
<path style="fill:#7daba3; stroke:none;" d="M587 887L588 888L587 887z"/>
<path style="fill:#699790; stroke:none;" d="M412 888L414 890L412 888z"/>
<path style="fill:#7daba3; stroke:none;" d="M413 888L415 890L413 888z"/>
<path style="fill:#b7d6d2; stroke:none;" d="M414 888L415 889L414 888z"/>
<path style="fill:#699790; stroke:none;" d="M586 888L587 889L586 888z"/>
<path style="fill:#b7d6d2; stroke:none;" d="M415 889L418 892L415 889z"/>
<path style="fill:#7daba3; stroke:none;" d="M585 889L586 890L585 889z"/>
<path style="fill:#699790; stroke:none;" d="M415 890L416 891L415 890z"/>
<path style="fill:#7daba3; stroke:none;" d="M583 890L584 891L583 890z"/>
<path style="fill:#699790; stroke:none;" d="M584 890L585 891L584 890M416 891L417 892L416 891z"/>
<path style="fill:#7daba3; stroke:none;" d="M582 891L583 892L582 891z"/>
<path style="fill:#699790; stroke:none;" d="M417 892L418 893L417 892z"/>
<path style="fill:#7daba3; stroke:none;" d="M418 892L419 893L418 892z"/>
<path style="fill:#b7d6d2; stroke:none;" d="M580 892L577 896L580 892z"/>
<path style="fill:#7daba3; stroke:none;" d="M581 892L582 893L581 892M419 893L420 894L419 893z"/>
<path style="fill:#b7d6d2; stroke:none;" d="M420 893L423 896L420 893z"/>
<path style="fill:#7daba3; stroke:none;" d="M580 893L581 894L580 893z"/>
<path style="fill:#699790; stroke:none;" d="M420 894L421 895L420 894M579 894L580 895L579 894M421 895L422 896L421 895M578 895L579 896L578 895M422.667 896.333L423.333 896.667L422.667 896.333z"/>
<path style="fill:#b7d6d2; stroke:none;" d="M424 896L428 900L424 896z"/>
<path style="fill:#7daba3; stroke:none;" d="M576 896L577 897L576 896M424 897L425 898L424 897z"/>
<path style="fill:#b7d6d2; stroke:none;" d="M574 897L572 900L574 897z"/>
<path style="fill:#7daba3; stroke:none;" d="M575 897L576 898L575 897z"/>
<path style="fill:#699790; stroke:none;" d="M425 898L426 899L425 898M574 898L575 899L574 898M426 899L427 900L426 899M573 899L574 900L573 899z"/>
<path style="fill:#7daba3; stroke:none;" d="M428 900L429 901L428 900M571 900L572 901L571 900z"/>
<path style="fill:#699790; stroke:none;" d="M572 900L573 901L572 900z"/>
<path style="fill:#7daba3; stroke:none;" d="M429 901L431 903L429 901z"/>
<path style="fill:#b7d6d2; stroke:none;" d="M430 901L431 902L430 901M569 901L566 905L569 901z"/>
<path style="fill:#7daba3; stroke:none;" d="M570 901L571 902L570 901z"/>
<path style="fill:#b7d6d2; stroke:none;" d="M431 902L432 903L431 902z"/>
<path style="fill:#7daba3; stroke:none;" d="M569 902L570 903L569 902z"/>
<path style="fill:#b7d6d2; stroke:none;" d="M432.667 903.333L433.333 903.667L432.667 903.333z"/>
<path style="fill:#699790; stroke:none;" d="M568 903L569 904L568 903z"/>
<path style="fill:#7daba3; stroke:none;" d="M433 904L434 905L433 904z"/>
<path style="fill:#699790; stroke:none;" d="M567 904L568 905L567 904z"/>
<path style="fill:#7daba3; stroke:none;" d="M434 905L435 906L434 905z"/>
<path style="fill:#b7d6d2; stroke:none;" d="M435 905L438 908L435 905M564 905L561 909L564 905z"/>
<path style="fill:#7daba3; stroke:none;" d="M565 905L566 906L565 905z"/>
<path style="fill:#699790; stroke:none;" d="M435 906L436 907L435 906z"/>
<path style="fill:#7daba3; stroke:none;" d="M564 906L565 907L564 906z"/>
<path style="fill:#699790; stroke:none;" d="M436 907L437 908L436 907z"/>
<path style="fill:#7daba3; stroke:none;" d="M563 907L564 908L563 907M438 908L439 909L438 908z"/>
<path style="fill:#699790; stroke:none;" d="M562 908L563 909L562 908M439 909L442 912L439 909z"/>
<path style="fill:#b7d6d2; stroke:none;" d="M440 909L441 910L440 909z"/>
<path style="fill:#7daba3; stroke:none;" d="M560 909L561 910L560 909z"/>
<path style="fill:#699790; stroke:none;" d="M561 909L562 910L561 909z"/>
<path style="fill:#b7d6d2; stroke:none;" d="M441 910L442 911L441 910M555 914L560 911L555 914z"/>
<path style="fill:#7daba3; stroke:none;" d="M442 911L443 912L442 911M558 911L559 912L558 911M443 912L445 914L443 912z"/>
<path style="fill:#b7d6d2; stroke:none;" d="M444 912L445 913L444 912z"/>
<path style="fill:#699790; stroke:none;" d="M557 912L558 913L557 912z"/>
<path style="fill:#b7d6d2; stroke:none;" d="M445 913L447 915L445 913z"/>
<path style="fill:#699790; stroke:none;" d="M556 913L557 914L556 913M445 914L446 915L445 914z"/>
<path style="fill:#7daba3; stroke:none;" d="M554 914L555 915L554 914z"/>
<path style="fill:#699790; stroke:none;" d="M555 914L556 915L555 914M446 915L447 916L446 915z"/>
<path style="fill:#7daba3; stroke:none;" d="M447 915L448 916L447 915M553 915L554 916L553 915M448 916L450 918L448 916z"/>
<path style="fill:#b7d6d2; stroke:none;" d="M449 916L450 917L449 916M551 916L549 919L551 916z"/>
<path style="fill:#699790; stroke:none;" d="M552.667 916.333L553.333 916.667L552.667 916.333z"/>
<path style="fill:#b7d6d2; stroke:none;" d="M450 917L452 919L450 917z"/>
<path style="fill:#699790; stroke:none;" d="M551 917L552 918L551 917M450 918L451 919L450 918M550 918L551 919L550 918z"/>
<path style="fill:#7daba3; stroke:none;" d="M452 919L453 920L452 919z"/>
<path style="fill:#b7d6d2; stroke:none;" d="M548 919L549 920L548 919z"/>
<path style="fill:#7daba3; stroke:none;" d="M453 920L455 922L453 920z"/>
<path style="fill:#b7d6d2; stroke:none;" d="M454 920L455 921L454 920M546 920L544 923L546 920z"/>
<path style="fill:#7daba3; stroke:none;" d="M547 920L548 921L547 920z"/>
<path style="fill:#b7d6d2; stroke:none;" d="M455 921L457 923L455 921z"/>
<path style="fill:#699790; stroke:none;" d="M546 921L547 922L546 921M455 922L456 923L455 922M545 922L546 923L545 922z"/>
<path style="fill:#7daba3; stroke:none;" d="M457 923L458 924L457 923z"/>
<path style="fill:#b7d6d2; stroke:none;" d="M543 923L544 924L543 923z"/>
<path style="fill:#7daba3; stroke:none;" d="M458 924L459 925L458 924z"/>
<path style="fill:#b7d6d2; stroke:none;" d="M459 924L462 927L459 924z"/>
<path style="fill:#7daba3; stroke:none;" d="M542 924L543 925L542 924z"/>
<path style="fill:#699790; stroke:none;" d="M459 925L460 926L459 925z"/>
<path style="fill:#b7d6d2; stroke:none;" d="M540 925L538 928L540 925z"/>
<path style="fill:#7daba3; stroke:none;" d="M541 925L542 926L541 925z"/>
<path style="fill:#699790; stroke:none;" d="M460 926L461 927L460 926z"/>
<path style="fill:#7daba3; stroke:none;" d="M540 926L541 927L540 926z"/>
<path style="fill:#699790; stroke:none;" d="M461 927L462 928L461 927z"/>
<path style="fill:#7daba3; stroke:none;" d="M462 927L463 928L462 927z"/>
<path style="fill:#b7d6d2; stroke:none;" d="M463 927L467 931L463 927z"/>
<path style="fill:#699790; stroke:none;" d="M539 927L540 928L539 927M463 928L464 929L463 928M508 928L508 944L509 944L508 928z"/>
<path style="fill:#7daba3; stroke:none;" d="M537 928L535 931L537 928z"/>
<path style="fill:#699790; stroke:none;" d="M464 929L465 930L464 929z"/>
<path style="fill:#b7d6d2; stroke:none;" d="M535 929L536 930L535 929z"/>
<path style="fill:#699790; stroke:none;" d="M537 929L538 930L537 929M465 930L466 931L465 930z"/>
<path style="fill:#b7d6d2; stroke:none;" d="M534 930L532 933L534 930z"/>
<path style="fill:#7daba3; stroke:none;" d="M467 931L469 933L467 931z"/>
<path style="fill:#b7d6d2; stroke:none;" d="M468 931L469 932L468 931z"/>
<path style="fill:#699790; stroke:none;" d="M534 931L535 932L534 931z"/>
<path style="fill:#b7d6d2; stroke:none;" d="M469 932L471 934L469 932z"/>
<path style="fill:#699790; stroke:none;" d="M533 932L534 933L533 932M469 933L470 934L469 933z"/>
<path style="fill:#b7d6d2; stroke:none;" d="M530 933L528 936L530 933z"/>
<path style="fill:#7daba3; stroke:none;" d="M531 933L530 935L531 933z"/>
<path style="fill:#699790; stroke:none;" d="M532 933L533 934L532 933M470 934L471 935L470 934z"/>
<path style="fill:#7daba3; stroke:none;" d="M471 934L472 935L471 934z"/>
<path style="fill:#699790; stroke:none;" d="M531 934L532 935L531 934z"/>
<path style="fill:#7daba3; stroke:none;" d="M472 935L474 937L472 935z"/>
<path style="fill:#b7d6d2; stroke:none;" d="M473 935L474 936L473 935z"/>
<path style="fill:#7daba3; stroke:none;" d="M529 935L530 936L529 935z"/>
<path style="fill:#b7d6d2; stroke:none;" d="M474 936L477 939L474 936M527 936L526 938L527 936z"/>
<path style="fill:#699790; stroke:none;" d="M474 937L475 938L474 937M527 937L528 938L527 937M475 938L476 939L475 938z"/>
<path style="fill:#7daba3; stroke:none;" d="M525 938L526 939L525 938z"/>
<path style="fill:#699790; stroke:none;" d="M526 938L527 939L526 938z"/>
<path style="fill:#7daba3; stroke:none;" d="M477 939L479 941L477 939z"/>
<path style="fill:#b7d6d2; stroke:none;" d="M478 939L479 940L478 939M523 939L521 942L523 939z"/>
<path style="fill:#7daba3; stroke:none;" d="M524 939L525 940L524 939z"/>
<path style="fill:#b7d6d2; stroke:none;" d="M479 940L482 943L479 940z"/>
<path style="fill:#699790; stroke:none;" d="M523 940L524 941L523 940M479 941L480 942L479 941M522 941L523 942L522 941M480 942L481 943L480 942z"/>
<path style="fill:#7daba3; stroke:none;" d="M520 942L521 943L520 942z"/>
<path style="fill:#699790; stroke:none;" d="M521 942L522 943L521 942M481 943L482 944L481 943z"/>
<path style="fill:#7daba3; stroke:none;" d="M482 943L483 944L482 943z"/>
<path style="fill:#b7d6d2; stroke:none;" d="M514 948L520 944L514 948z"/>
<path style="fill:#699790; stroke:none;" d="M483 944L485 946L483 944z"/>
<path style="fill:#b7d6d2; stroke:none;" d="M484 944L485 945L484 944z"/>
<path style="fill:#7daba3; stroke:none;" d="M508 944L509 945L508 944M518 944L519 945L518 944z"/>
<path style="fill:#b7d6d2; stroke:none;" d="M485 945L486 946L485 945z"/>
<path style="fill:#699790; stroke:none;" d="M508.333 945.667L508.667 946.333L508.333 945.667M517 945L518 946L517 945z"/>
<path style="fill:#7daba3; stroke:none;" d="M486 946L487 947L486 946z"/>
<path style="fill:#699790; stroke:none;" d="M494.333 946.667L494.667 947.333L494.333 946.667M516 946L517 947L516 946M486 947L486 948L491 951L486 947z"/>
<path style="fill:#b7d6d2; stroke:none;" d="M488 947L489 948L488 947z"/>
<path style="fill:#7daba3; stroke:none;" d="M508 947L509 948L508 947z"/>
<path style="fill:#699790; stroke:none;" d="M515 947L516 948L515 947z"/>
<path style="fill:#b7d6d2; stroke:none;" d="M489 948L490 949L489 948z"/>
<path style="fill:#699790; stroke:none;" d="M508 948L509 949L508 948z"/>
<path style="fill:#b7d6d2; stroke:none;" d="M512 948L509 952L512 948z"/>
<path style="fill:#7daba3; stroke:none;" d="M513 948L514 949L513 948z"/>
<path style="fill:#b7d6d2; stroke:none;" d="M490 949L491 950L490 949z"/>
<path style="fill:#7daba3; stroke:none;" d="M508 949L509 950L508 949z"/>
<path style="fill:#699790; stroke:none;" d="M512 949L513 950L512 949z"/>
<path style="fill:#7daba3; stroke:none;" d="M491 950L492 951L491 950z"/>
<path style="fill:#699790; stroke:none;" d="M494.333 950.667L494.667 951.333L494.333 950.667M508.333 950.667L508.667 951.333L508.333 950.667M511 950L512 951L511 950z"/>
<path style="fill:#7daba3; stroke:none;" d="M492.667 951.333L493.333 951.667L492.667 951.333z"/>
<path style="fill:#699790; stroke:none;" d="M510 951L511 952L510 951z"/>
</svg>
